<svg width="186" height="269" viewBox="0 0 186 269" fill="none" xmlns="http://www.w3.org/2000/svg">
<g filter="url(#filter0_d_750_767)">
<rect x="4" width="178" height="194" rx="25" fill="#207CF8"/>
</g>
<g filter="url(#filter1_d_750_767)">
<path d="M4 170H182V236C182 249.807 170.807 261 157 261H29C15.1929 261 4 249.807 4 236V170Z" fill="white"/>
</g>
<path d="M67.8132 198L64.9332 193.95C64.6092 193.986 64.2732 194.004 63.9252 194.004H60.5412V198H59.2092V185.4H63.9252C65.5332 185.4 66.7932 185.784 67.7052 186.552C68.6172 187.32 69.0732 188.376 69.0732 189.72C69.0732 190.704 68.8212 191.538 68.3172 192.222C67.8252 192.894 67.1172 193.38 66.1932 193.68L69.2712 198H67.8132ZM63.8892 192.87C65.1372 192.87 66.0912 192.594 66.7512 192.042C67.4112 191.49 67.7412 190.716 67.7412 189.72C67.7412 188.7 67.4112 187.92 66.7512 187.38C66.0912 186.828 65.1372 186.552 63.8892 186.552H60.5412V192.87H63.8892ZM80.191 193.662H72.271C72.343 194.646 72.721 195.444 73.405 196.056C74.089 196.656 74.953 196.956 75.997 196.956C76.585 196.956 77.125 196.854 77.617 196.65C78.109 196.434 78.535 196.122 78.895 195.714L79.615 196.542C79.195 197.046 78.667 197.43 78.031 197.694C77.407 197.958 76.717 198.09 75.961 198.09C74.989 198.09 74.125 197.886 73.369 197.478C72.625 197.058 72.043 196.482 71.623 195.75C71.203 195.018 70.993 194.19 70.993 193.266C70.993 192.342 71.191 191.514 71.587 190.782C71.995 190.05 72.547 189.48 73.243 189.072C73.951 188.664 74.743 188.46 75.619 188.46C76.495 188.46 77.281 188.664 77.977 189.072C78.673 189.48 79.219 190.05 79.615 190.782C80.011 191.502 80.209 192.33 80.209 193.266L80.191 193.662ZM75.619 189.558C74.707 189.558 73.939 189.852 73.315 190.44C72.703 191.016 72.355 191.772 72.271 192.708H78.985C78.901 191.772 78.547 191.016 77.923 190.44C77.311 189.852 76.543 189.558 75.619 189.558ZM87.6883 188.46C88.5763 188.46 89.3803 188.664 90.1003 189.072C90.8203 189.468 91.3843 190.032 91.7923 190.764C92.2003 191.496 92.4043 192.33 92.4043 193.266C92.4043 194.214 92.2003 195.054 91.7923 195.786C91.3843 196.518 90.8203 197.088 90.1003 197.496C89.3923 197.892 88.5883 198.09 87.6883 198.09C86.9203 198.09 86.2243 197.934 85.6003 197.622C84.9883 197.298 84.4843 196.83 84.0883 196.218V201.492H82.8103V188.532H84.0343V190.404C84.4183 189.78 84.9223 189.3 85.5463 188.964C86.1823 188.628 86.8963 188.46 87.6883 188.46ZM87.5983 196.956C88.2583 196.956 88.8583 196.806 89.3983 196.506C89.9383 196.194 90.3583 195.756 90.6583 195.192C90.9703 194.628 91.1263 193.986 91.1263 193.266C91.1263 192.546 90.9703 191.91 90.6583 191.358C90.3583 190.794 89.9383 190.356 89.3983 190.044C88.8583 189.732 88.2583 189.576 87.5983 189.576C86.9263 189.576 86.3203 189.732 85.7803 190.044C85.2523 190.356 84.8323 190.794 84.5203 191.358C84.2203 191.91 84.0703 192.546 84.0703 193.266C84.0703 193.986 84.2203 194.628 84.5203 195.192C84.8323 195.756 85.2523 196.194 85.7803 196.506C86.3203 196.806 86.9263 196.956 87.5983 196.956ZM98.8795 198.09C97.9675 198.09 97.1455 197.886 96.4135 197.478C95.6815 197.058 95.1055 196.482 94.6855 195.75C94.2655 195.018 94.0555 194.19 94.0555 193.266C94.0555 192.342 94.2655 191.514 94.6855 190.782C95.1055 190.05 95.6815 189.48 96.4135 189.072C97.1455 188.664 97.9675 188.46 98.8795 188.46C99.7915 188.46 100.614 188.664 101.346 189.072C102.078 189.48 102.648 190.05 103.056 190.782C103.476 191.514 103.686 192.342 103.686 193.266C103.686 194.19 103.476 195.018 103.056 195.75C102.648 196.482 102.078 197.058 101.346 197.478C100.614 197.886 99.7915 198.09 98.8795 198.09ZM98.8795 196.956C99.5515 196.956 100.152 196.806 100.68 196.506C101.22 196.194 101.64 195.756 101.94 195.192C102.24 194.628 102.39 193.986 102.39 193.266C102.39 192.546 102.24 191.904 101.94 191.34C101.64 190.776 101.22 190.344 100.68 190.044C100.152 189.732 99.5515 189.576 98.8795 189.576C98.2075 189.576 97.6015 189.732 97.0615 190.044C96.5335 190.344 96.1135 190.776 95.8015 191.34C95.5015 191.904 95.3515 192.546 95.3515 193.266C95.3515 193.986 95.5015 194.628 95.8015 195.192C96.1135 195.756 96.5335 196.194 97.0615 196.506C97.6015 196.806 98.2075 196.956 98.8795 196.956ZM107.519 190.386C107.819 189.75 108.263 189.27 108.851 188.946C109.451 188.622 110.189 188.46 111.065 188.46V189.702L110.759 189.684C109.763 189.684 108.983 189.99 108.419 190.602C107.855 191.214 107.573 192.072 107.573 193.176V198H106.295V188.532H107.519V190.386ZM118.769 197.424C118.529 197.64 118.229 197.808 117.869 197.928C117.521 198.036 117.155 198.09 116.771 198.09C115.883 198.09 115.199 197.85 114.719 197.37C114.239 196.89 113.999 196.212 113.999 195.336V189.612H112.307V188.532H113.999V186.462H115.277V188.532H118.157V189.612H115.277V195.264C115.277 195.828 115.415 196.26 115.691 196.56C115.979 196.848 116.387 196.992 116.915 196.992C117.179 196.992 117.431 196.95 117.671 196.866C117.923 196.782 118.139 196.662 118.319 196.506L118.769 197.424ZM129.005 193.662H121.085C121.157 194.646 121.535 195.444 122.219 196.056C122.903 196.656 123.767 196.956 124.811 196.956C125.399 196.956 125.939 196.854 126.431 196.65C126.923 196.434 127.349 196.122 127.709 195.714L128.429 196.542C128.009 197.046 127.481 197.43 126.845 197.694C126.221 197.958 125.531 198.09 124.775 198.09C123.803 198.09 122.939 197.886 122.183 197.478C121.439 197.058 120.857 196.482 120.437 195.75C120.017 195.018 119.807 194.19 119.807 193.266C119.807 192.342 120.005 191.514 120.401 190.782C120.809 190.05 121.361 189.48 122.057 189.072C122.765 188.664 123.557 188.46 124.433 188.46C125.309 188.46 126.095 188.664 126.791 189.072C127.487 189.48 128.033 190.05 128.429 190.782C128.825 191.502 129.023 192.33 129.023 193.266L129.005 193.662ZM124.433 189.558C123.521 189.558 122.753 189.852 122.129 190.44C121.517 191.016 121.169 191.772 121.085 192.708H127.799C127.715 191.772 127.361 191.016 126.737 190.44C126.125 189.852 125.357 189.558 124.433 189.558ZM52.6494 207.634C52.0974 207.634 51.6774 207.784 51.3894 208.084C51.1134 208.384 50.9754 208.828 50.9754 209.416V210.532H53.8914V211.612H51.0114V220H49.7334V211.612H48.0414V210.532H49.7334V209.362C49.7334 208.498 49.9794 207.814 50.4714 207.31C50.9754 206.806 51.6834 206.554 52.5954 206.554C52.9554 206.554 53.3034 206.608 53.6394 206.716C53.9754 206.812 54.2574 206.956 54.4854 207.148L54.0534 208.102C53.6814 207.79 53.2134 207.634 52.6494 207.634ZM57.0594 210.532H58.3374V220H57.0594V210.532ZM57.7074 208.462C57.4434 208.462 57.2214 208.372 57.0414 208.192C56.8614 208.012 56.7714 207.796 56.7714 207.544C56.7714 207.304 56.8614 207.094 57.0414 206.914C57.2214 206.734 57.4434 206.644 57.7074 206.644C57.9714 206.644 58.1934 206.734 58.3734 206.914C58.5534 207.082 58.6434 207.286 58.6434 207.526C58.6434 207.79 58.5534 208.012 58.3734 208.192C58.1934 208.372 57.9714 208.462 57.7074 208.462ZM66.7339 210.46C67.9219 210.46 68.8639 210.808 69.5599 211.504C70.2679 212.188 70.6219 213.19 70.6219 214.51V220H69.3439V214.636C69.3439 213.652 69.0979 212.902 68.6059 212.386C68.1139 211.87 67.4119 211.612 66.4999 211.612C65.4799 211.612 64.6699 211.918 64.0699 212.53C63.4819 213.13 63.1879 213.964 63.1879 215.032V220H61.9099V210.532H63.1339V212.278C63.4819 211.702 63.9619 211.258 64.5739 210.946C65.1979 210.622 65.9179 210.46 66.7339 210.46ZM77.4036 210.46C78.6396 210.46 79.5876 210.772 80.2476 211.396C80.9076 212.008 81.2376 212.92 81.2376 214.132V220H80.0136V218.524C79.7256 219.016 79.2996 219.4 78.7356 219.676C78.1836 219.952 77.5236 220.09 76.7556 220.09C75.6996 220.09 74.8596 219.838 74.2356 219.334C73.6116 218.83 73.2996 218.164 73.2996 217.336C73.2996 216.532 73.5876 215.884 74.1636 215.392C74.7516 214.9 75.6816 214.654 76.9536 214.654H79.9596V214.078C79.9596 213.262 79.7316 212.644 79.2756 212.224C78.8196 211.792 78.1536 211.576 77.2776 211.576C76.6776 211.576 76.1016 211.678 75.5496 211.882C74.9976 212.074 74.5236 212.344 74.1276 212.692L73.5516 211.738C74.0316 211.33 74.6076 211.018 75.2796 210.802C75.9516 210.574 76.6596 210.46 77.4036 210.46ZM76.9536 219.082C77.6736 219.082 78.2916 218.92 78.8076 218.596C79.3236 218.26 79.7076 217.78 79.9596 217.156V215.608H76.9896C75.3696 215.608 74.5596 216.172 74.5596 217.3C74.5596 217.852 74.7696 218.29 75.1896 218.614C75.6096 218.926 76.1976 219.082 76.9536 219.082ZM89.5328 210.46C90.7208 210.46 91.6628 210.808 92.3588 211.504C93.0668 212.188 93.4208 213.19 93.4208 214.51V220H92.1428V214.636C92.1428 213.652 91.8968 212.902 91.4048 212.386C90.9128 211.87 90.2108 211.612 89.2988 211.612C88.2788 211.612 87.4688 211.918 86.8688 212.53C86.2808 213.13 85.9868 213.964 85.9868 215.032V220H84.7088V210.532H85.9328V212.278C86.2808 211.702 86.7608 211.258 87.3728 210.946C87.9968 210.622 88.7168 210.46 89.5328 210.46ZM100.85 220.09C99.9136 220.09 99.0736 219.886 98.3296 219.478C97.5976 219.07 97.0216 218.5 96.6016 217.768C96.1816 217.024 95.9716 216.19 95.9716 215.266C95.9716 214.342 96.1816 213.514 96.6016 212.782C97.0216 212.05 97.5976 211.48 98.3296 211.072C99.0736 210.664 99.9136 210.46 100.85 210.46C101.666 210.46 102.392 210.622 103.028 210.946C103.676 211.258 104.186 211.72 104.558 212.332L103.604 212.98C103.292 212.512 102.896 212.164 102.416 211.936C101.936 211.696 101.414 211.576 100.85 211.576C100.166 211.576 99.5476 211.732 98.9956 212.044C98.4556 212.344 98.0296 212.776 97.7176 213.34C97.4176 213.904 97.2676 214.546 97.2676 215.266C97.2676 215.998 97.4176 216.646 97.7176 217.21C98.0296 217.762 98.4556 218.194 98.9956 218.506C99.5476 218.806 100.166 218.956 100.85 218.956C101.414 218.956 101.936 218.842 102.416 218.614C102.896 218.386 103.292 218.038 103.604 217.57L104.558 218.218C104.186 218.83 103.676 219.298 103.028 219.622C102.38 219.934 101.654 220.09 100.85 220.09ZM107.068 210.532H108.346V220H107.068V210.532ZM107.716 208.462C107.452 208.462 107.23 208.372 107.05 208.192C106.87 208.012 106.78 207.796 106.78 207.544C106.78 207.304 106.87 207.094 107.05 206.914C107.23 206.734 107.452 206.644 107.716 206.644C107.98 206.644 108.202 206.734 108.382 206.914C108.562 207.082 108.652 207.286 108.652 207.526C108.652 207.79 108.562 208.012 108.382 208.192C108.202 208.372 107.98 208.462 107.716 208.462ZM120.146 215.662H112.226C112.298 216.646 112.676 217.444 113.36 218.056C114.044 218.656 114.908 218.956 115.952 218.956C116.54 218.956 117.08 218.854 117.572 218.65C118.064 218.434 118.49 218.122 118.85 217.714L119.57 218.542C119.15 219.046 118.622 219.43 117.986 219.694C117.362 219.958 116.672 220.09 115.916 220.09C114.944 220.09 114.08 219.886 113.324 219.478C112.58 219.058 111.998 218.482 111.578 217.75C111.158 217.018 110.948 216.19 110.948 215.266C110.948 214.342 111.146 213.514 111.542 212.782C111.95 212.05 112.502 211.48 113.198 211.072C113.906 210.664 114.698 210.46 115.574 210.46C116.45 210.46 117.236 210.664 117.932 211.072C118.628 211.48 119.174 212.05 119.57 212.782C119.966 213.502 120.164 214.33 120.164 215.266L120.146 215.662ZM115.574 211.558C114.662 211.558 113.894 211.852 113.27 212.44C112.658 213.016 112.31 213.772 112.226 214.708H118.94C118.856 213.772 118.502 213.016 117.878 212.44C117.266 211.852 116.498 211.558 115.574 211.558ZM123.989 212.386C124.289 211.75 124.733 211.27 125.321 210.946C125.921 210.622 126.659 210.46 127.535 210.46V211.702L127.229 211.684C126.233 211.684 125.453 211.99 124.889 212.602C124.325 213.214 124.043 214.072 124.043 215.176V220H122.765V210.532H123.989V212.386ZM133.631 220.09C132.719 220.09 131.897 219.886 131.165 219.478C130.433 219.058 129.857 218.482 129.437 217.75C129.017 217.018 128.807 216.19 128.807 215.266C128.807 214.342 129.017 213.514 129.437 212.782C129.857 212.05 130.433 211.48 131.165 211.072C131.897 210.664 132.719 210.46 133.631 210.46C134.543 210.46 135.365 210.664 136.097 211.072C136.829 211.48 137.399 212.05 137.807 212.782C138.227 213.514 138.437 214.342 138.437 215.266C138.437 216.19 138.227 217.018 137.807 217.75C137.399 218.482 136.829 219.058 136.097 219.478C135.365 219.886 134.543 220.09 133.631 220.09ZM133.631 218.956C134.303 218.956 134.903 218.806 135.431 218.506C135.971 218.194 136.391 217.756 136.691 217.192C136.991 216.628 137.141 215.986 137.141 215.266C137.141 214.546 136.991 213.904 136.691 213.34C136.391 212.776 135.971 212.344 135.431 212.044C134.903 211.732 134.303 211.576 133.631 211.576C132.959 211.576 132.353 211.732 131.813 212.044C131.285 212.344 130.865 212.776 130.553 213.34C130.253 213.904 130.103 214.546 130.103 215.266C130.103 215.986 130.253 216.628 130.553 217.192C130.865 217.756 131.285 218.194 131.813 218.506C132.353 218.806 132.959 218.956 133.631 218.956ZM67.8205 232.46C69.0085 232.46 69.9385 232.802 70.6105 233.486C71.2945 234.17 71.6365 235.178 71.6365 236.51V242H70.3585V236.636C70.3585 235.652 70.1185 234.902 69.6385 234.386C69.1705 233.87 68.5045 233.612 67.6405 233.612C66.6565 233.612 65.8825 233.918 65.3185 234.53C64.7545 235.13 64.4725 235.964 64.4725 237.032V242H63.1945V236.636C63.1945 235.652 62.9545 234.902 62.4745 234.386C62.0065 233.87 61.3345 233.612 60.4585 233.612C59.4865 233.612 58.7125 233.918 58.1365 234.53C57.5725 235.13 57.2905 235.964 57.2905 237.032V242H56.0125V232.532H57.2365V234.26C57.5725 233.684 58.0405 233.24 58.6405 232.928C59.2405 232.616 59.9305 232.46 60.7105 232.46C61.5025 232.46 62.1865 232.628 62.7625 232.964C63.3505 233.3 63.7885 233.798 64.0765 234.458C64.4245 233.834 64.9225 233.348 65.5705 233C66.2305 232.64 66.9805 232.46 67.8205 232.46ZM83.3815 237.662H75.4615C75.5335 238.646 75.9115 239.444 76.5955 240.056C77.2795 240.656 78.1435 240.956 79.1875 240.956C79.7755 240.956 80.3155 240.854 80.8075 240.65C81.2995 240.434 81.7255 240.122 82.0855 239.714L82.8055 240.542C82.3855 241.046 81.8575 241.43 81.2215 241.694C80.5975 241.958 79.9075 242.09 79.1515 242.09C78.1795 242.09 77.3155 241.886 76.5595 241.478C75.8155 241.058 75.2335 240.482 74.8135 239.75C74.3935 239.018 74.1835 238.19 74.1835 237.266C74.1835 236.342 74.3815 235.514 74.7775 234.782C75.1855 234.05 75.7375 233.48 76.4335 233.072C77.1415 232.664 77.9335 232.46 78.8095 232.46C79.6855 232.46 80.4715 232.664 81.1675 233.072C81.8635 233.48 82.4095 234.05 82.8055 234.782C83.2015 235.502 83.3995 236.33 83.3995 237.266L83.3815 237.662ZM78.8095 233.558C77.8975 233.558 77.1295 233.852 76.5055 234.44C75.8935 235.016 75.5455 235.772 75.4615 236.708H82.1755C82.0915 235.772 81.7375 235.016 81.1135 234.44C80.5015 233.852 79.7335 233.558 78.8095 233.558ZM90.8248 232.46C92.0128 232.46 92.9548 232.808 93.6508 233.504C94.3588 234.188 94.7128 235.19 94.7128 236.51V242H93.4348V236.636C93.4348 235.652 93.1888 234.902 92.6968 234.386C92.2048 233.87 91.5028 233.612 90.5908 233.612C89.5708 233.612 88.7608 233.918 88.1608 234.53C87.5728 235.13 87.2788 235.964 87.2788 237.032V242H86.0008V232.532H87.2248V234.278C87.5728 233.702 88.0528 233.258 88.6648 232.946C89.2888 232.622 90.0088 232.46 90.8248 232.46ZM100.72 242.09C99.9524 242.09 99.2144 241.982 98.5064 241.766C97.8104 241.538 97.2644 241.256 96.8684 240.92L97.4444 239.912C97.8404 240.224 98.3384 240.482 98.9384 240.686C99.5384 240.878 100.162 240.974 100.81 240.974C101.674 240.974 102.31 240.842 102.718 240.578C103.138 240.302 103.348 239.918 103.348 239.426C103.348 239.078 103.234 238.808 103.006 238.616C102.778 238.412 102.49 238.262 102.142 238.166C101.794 238.058 101.332 237.956 100.756 237.86C99.9884 237.716 99.3704 237.572 98.9024 237.428C98.4344 237.272 98.0324 237.014 97.6964 236.654C97.3724 236.294 97.2104 235.796 97.2104 235.16C97.2104 234.368 97.5404 233.72 98.2004 233.216C98.8604 232.712 99.7784 232.46 100.954 232.46C101.566 232.46 102.178 232.544 102.79 232.712C103.402 232.868 103.906 233.078 104.302 233.342L103.744 234.368C102.964 233.828 102.034 233.558 100.954 233.558C100.138 233.558 99.5204 233.702 99.1004 233.99C98.6924 234.278 98.4884 234.656 98.4884 235.124C98.4884 235.484 98.6024 235.772 98.8304 235.988C99.0704 236.204 99.3644 236.366 99.7124 236.474C100.06 236.57 100.54 236.672 101.152 236.78C101.908 236.924 102.514 237.068 102.97 237.212C103.426 237.356 103.816 237.602 104.14 237.95C104.464 238.298 104.626 238.778 104.626 239.39C104.626 240.218 104.278 240.878 103.582 241.37C102.898 241.85 101.944 242.09 100.72 242.09ZM115.521 232.532V242H114.297V240.272C113.961 240.848 113.499 241.298 112.911 241.622C112.323 241.934 111.651 242.09 110.895 242.09C109.659 242.09 108.681 241.748 107.961 241.064C107.253 240.368 106.899 239.354 106.899 238.022V232.532H108.177V237.896C108.177 238.892 108.423 239.648 108.915 240.164C109.407 240.68 110.109 240.938 111.021 240.938C112.017 240.938 112.803 240.638 113.379 240.038C113.955 239.426 114.243 238.58 114.243 237.5V232.532H115.521ZM122.412 232.46C123.648 232.46 124.596 232.772 125.256 233.396C125.916 234.008 126.246 234.92 126.246 236.132V242H125.022V240.524C124.734 241.016 124.308 241.4 123.744 241.676C123.192 241.952 122.532 242.09 121.764 242.09C120.708 242.09 119.868 241.838 119.244 241.334C118.62 240.83 118.308 240.164 118.308 239.336C118.308 238.532 118.596 237.884 119.172 237.392C119.76 236.9 120.69 236.654 121.962 236.654H124.968V236.078C124.968 235.262 124.74 234.644 124.284 234.224C123.828 233.792 123.162 233.576 122.286 233.576C121.686 233.576 121.11 233.678 120.558 233.882C120.006 234.074 119.532 234.344 119.136 234.692L118.56 233.738C119.04 233.33 119.616 233.018 120.288 232.802C120.96 232.574 121.668 232.46 122.412 232.46ZM121.962 241.082C122.682 241.082 123.3 240.92 123.816 240.596C124.332 240.26 124.716 239.78 124.968 239.156V237.608H121.998C120.378 237.608 119.568 238.172 119.568 239.3C119.568 239.852 119.778 240.29 120.198 240.614C120.618 240.926 121.206 241.082 121.962 241.082ZM129.718 228.644H130.996V242H129.718V228.644Z" fill="black"/>
<path d="M49.1705 125.886C64.208 125.886 78.8692 125.886 93.8157 125.886C91.7685 119.102 91.6982 112.36 94.1672 105.509C87.1034 105.509 80.267 105.509 73.1122 105.509C73.1122 108.719 73.1164 111.938 73.1122 115.156C73.1081 118.478 73.0378 118.552 69.8036 118.552C66.218 118.552 62.6364 118.519 59.0508 118.565C57.4668 118.585 56.8092 117.907 56.8133 116.339C56.8382 108 56.8423 99.656 56.8092 91.3166C56.8009 89.5585 57.686 89.0952 59.2741 89.1035C66.4413 89.1407 73.6085 89.12 80.7757 89.12C81.516 89.12 82.2522 89.12 83.2282 89.12C83.2282 85.4756 83.2199 82.0505 83.2323 78.6254C83.2406 76.1475 83.4722 75.92 85.9826 75.92C98.3898 75.9159 110.793 75.9448 123.2 75.891C125.144 75.8828 125.975 76.5322 125.896 78.5302C125.793 81.128 125.872 83.7341 125.872 86.2988C128.452 86.969 130.83 87.5895 133.37 88.2472C133.37 81.6327 133.37 75.0637 133.37 68.1886C132.58 68.1886 131.852 68.1886 131.12 68.1886C104.585 68.1886 78.0503 68.2093 51.5155 68.1431C49.5551 68.139 49.0506 68.7388 49.1333 70.592C49.2698 73.6862 49.1747 76.7928 49.1664 79.8953C49.1622 81.0867 49.2077 82.4931 47.5452 82.4518C46.0687 82.4145 46.048 81.1404 46.048 79.9822C46.0605 71.6386 46.0439 63.2991 46.0605 54.9555C46.0687 52.1012 47.4004 50.7692 50.2127 50.7113C51.317 50.6906 52.4212 50.6617 53.5213 50.7196C54.9357 50.7941 56.2922 50.8396 56.9581 49.2263C56.9829 49.1684 57.0532 49.127 57.1028 49.0815C59.0673 47.2903 66.7308 47.8653 68.4637 49.8592C68.84 50.2935 69.5514 50.6658 70.118 50.6741C74.6673 50.7403 79.2166 50.732 83.7617 50.6782C84.2787 50.67 84.9983 50.3638 85.263 49.9585C86.2183 48.5106 87.5418 48.0846 89.1671 48.1342C90.6808 48.1797 92.2482 47.9108 93.6999 48.2128C94.9943 48.4858 96.1565 49.3586 97.3889 49.9543C97.9555 50.2273 98.5263 50.6162 99.1218 50.6782C100.28 50.7982 101.492 50.5707 102.621 50.7899C103.204 50.9057 104.13 51.7538 104.064 52.1261C103.952 52.7548 103.241 53.6607 102.674 53.7476C101.202 53.9751 99.6719 53.8262 98.0093 53.8262C98.0093 57.6526 98.0093 61.2598 98.0093 64.9993C103.191 64.9993 108.324 64.9993 113.605 64.9993C113.605 61.359 113.605 57.7477 113.605 53.8593C112.311 53.8593 111.049 54.0413 109.883 53.789C109.201 53.6442 108.667 52.8086 108.067 52.2874C108.667 51.762 109.188 51.0505 109.883 50.7734C110.536 50.5128 111.417 50.8602 112.125 50.6741C112.948 50.459 113.696 49.9585 114.465 49.5572C114.639 49.4662 114.738 49.2511 114.891 49.1104C116.839 47.2986 124.536 47.8239 126.265 49.8178C126.645 50.2563 127.332 50.6245 127.902 50.67C129.408 50.7899 130.934 50.6906 132.447 50.7155C135.285 50.761 136.629 52.0888 136.633 54.9224C136.649 65.8845 136.666 76.8425 136.608 87.8046C136.6 89.3227 136.968 90.241 138.337 91.1221C148.643 97.749 153.842 110.163 151.373 121.932C148.738 134.503 139.048 143.6 126.087 145.664C114.606 147.492 102.389 141.556 96.3715 131.061C95.4782 129.502 94.5146 129.063 92.8107 129.072C79.0263 129.138 65.2419 129.113 51.4576 129.109C46.9827 129.109 46.0563 128.162 46.0563 123.615C46.0563 112.24 46.0563 100.868 46.0563 89.4923C46.0563 88.9421 45.895 88.301 46.1184 87.8625C46.4244 87.2668 47.0324 86.8242 47.5121 86.3195C48.0497 86.8366 48.7445 87.2668 49.0795 87.8914C49.3401 88.3796 49.1664 89.1035 49.1705 89.724C49.1747 100.893 49.1705 112.058 49.1705 123.227C49.1705 124.042 49.1705 124.856 49.1705 125.886ZM148.804 116.273C148.961 101.596 137.146 89.5792 122.336 89.3558C107.745 89.1366 95.5196 101.112 95.3459 115.793C95.1722 130.515 107.199 142.739 121.955 142.843C136.625 142.946 148.647 131.049 148.804 116.273ZM84.7419 54.0413C79.3654 54.0413 74.2496 54.0413 69.1337 54.0413C69.1337 57.8181 69.1337 61.4211 69.1337 64.9703C74.4439 64.9703 79.5681 64.9703 84.7419 64.9703C84.7419 61.2556 84.7419 57.7022 84.7419 54.0413ZM73.2528 102.163C76.6565 102.163 79.8617 102.163 83.1041 102.163C83.1041 98.8122 83.1041 95.6145 83.1041 92.3011C79.7832 92.3011 76.5862 92.3011 73.2528 92.3011C73.2528 95.6187 73.2528 98.8163 73.2528 102.163ZM96.4005 92.33C92.8603 92.33 89.6717 92.33 86.4665 92.33C86.4665 95.7262 86.4665 98.9652 86.4665 102.312C89.2581 102.312 91.8595 102.262 94.4608 102.332C95.8463 102.37 96.3426 101.551 96.3757 100.45C96.4584 97.7904 96.4005 95.1306 96.4005 92.33ZM96.4129 89.0166C96.4129 85.9472 96.4749 83.1343 96.3509 80.3297C96.3302 79.8788 95.5196 79.1176 95.044 79.0969C92.5749 78.9728 90.0977 78.9811 87.6286 79.0887C87.1696 79.1093 86.3631 79.7629 86.3465 80.1476C86.239 83.0764 86.2886 86.0093 86.2886 89.0166C89.7585 89.0166 92.9554 89.0166 96.4129 89.0166ZM69.8946 102.184C69.8946 98.7667 69.8946 95.569 69.8946 92.3176C66.5654 92.3176 63.3726 92.3176 60.0888 92.3176C60.0888 95.6559 60.0888 98.8577 60.0888 102.184C63.3974 102.184 66.5861 102.184 69.8946 102.184ZM69.9153 105.476C66.6109 105.476 63.4222 105.476 60.1509 105.476C60.1509 108.831 60.1509 112.07 60.1509 115.334C63.5215 115.334 66.7143 115.334 69.9153 115.334C69.9153 111.979 69.9153 108.777 69.9153 105.476ZM109.482 79.1631C106.086 79.1631 102.894 79.1631 99.6429 79.1631C99.6429 82.5386 99.6429 85.7776 99.6429 88.967C103.009 88.967 106.198 88.967 109.482 88.967C109.482 85.6825 109.482 82.5469 109.482 79.1631ZM65.8788 65.0075C65.8788 60.7303 65.8788 56.5564 65.8788 52.3867C65.8788 50.7775 64.5885 51.034 63.8069 51.2367C62.2105 51.6421 59.4643 49.8468 59.1376 52.3949C58.6124 56.4985 58.997 60.7179 58.997 65.0075C61.3171 65.0075 63.4181 65.0075 65.8788 65.0075ZM94.7958 65.0158C94.7958 60.7054 95.1515 56.4902 94.6635 52.3743C94.3657 49.8344 91.7147 51.6048 90.1804 51.2449C89.3656 51.0547 87.9181 50.6617 87.9057 52.4032C87.8809 56.5729 87.8974 60.7427 87.8974 65.02C90.2383 65.0158 92.3433 65.0158 94.7958 65.0158ZM123.7 65.0158C123.7 60.7096 123.705 56.5398 123.696 52.366C123.692 50.9595 122.584 51.0216 121.786 51.2243C120.144 51.6421 117.327 49.8964 116.992 52.2171C116.393 56.3702 116.823 60.6682 116.823 65.0158C119.135 65.0158 121.236 65.0158 123.7 65.0158ZM122.604 79.1424C119.197 79.1424 116.049 79.1424 112.782 79.1424C112.782 81.976 112.782 84.7021 112.782 87.4281C116.045 86.94 119.275 86.456 122.604 85.9596C122.604 83.7796 122.604 81.5458 122.604 79.1424ZM55.829 65.0075C55.829 61.2308 55.829 57.6857 55.829 53.8841C53.8977 53.8841 52.0655 53.8303 50.2417 53.9296C49.8777 53.9503 49.245 54.5253 49.2408 54.8562C49.1664 58.1986 49.1953 61.5452 49.1953 65.0117C51.5031 65.0075 53.5916 65.0075 55.829 65.0075ZM133.519 65.0324C133.519 61.5907 133.556 58.3724 133.477 55.1541C133.465 54.7239 132.898 53.9627 132.551 53.942C130.673 53.8221 128.787 53.8841 126.926 53.8841C126.926 57.8181 126.926 61.4128 126.926 65.0324C129.126 65.0324 131.165 65.0324 133.519 65.0324ZM99.523 96.4253C101.078 94.9485 102.356 93.7365 103.812 92.3549C102.178 92.3549 100.879 92.3549 99.523 92.3549C99.523 93.6745 99.523 94.8244 99.523 96.4253Z" fill="white"/>
<path d="M60.5685 80.0076C61.6314 78.8038 62.5206 77.5422 63.6703 76.599C64.1666 76.1936 65.1964 76.4377 65.9822 76.3839C65.916 77.1781 66.1476 78.2164 65.7299 78.7211C64.423 80.2972 62.9507 81.7739 61.3626 83.0646C60.8911 83.4493 59.5098 83.4369 59.0962 83.0356C58.1905 82.1586 56.8588 80.7025 57.0863 79.8669C57.6405 77.8607 59.1583 78.9197 60.5685 80.0076Z" fill="white"/>
<path d="M71.4004 79.9C72.3682 78.7997 73.2615 77.5422 74.4112 76.599C74.9075 76.1936 75.9373 76.4335 76.7231 76.3798C76.6611 77.174 76.8927 78.2123 76.4791 78.717C75.1722 80.293 73.6999 81.7698 72.1118 83.0646C71.6362 83.4534 70.2548 83.441 69.8413 83.0439C68.9314 82.1669 67.6038 80.715 67.8272 79.8711C68.3855 77.8069 69.9074 79.0644 71.4004 79.9Z" fill="white"/>
<path d="M80.3871 118.532C79.6344 118.536 78.8156 118.718 78.1497 118.478C77.5624 118.267 76.8015 117.605 76.7601 117.097C76.7229 116.613 77.4839 115.674 77.9719 115.62C79.6592 115.434 81.3921 115.43 83.0795 115.612C83.5923 115.665 84.3947 116.555 84.3822 117.043C84.3698 117.552 83.6089 118.292 83.034 118.466C82.2193 118.71 81.2763 118.528 80.3871 118.532Z" fill="white"/>
<path d="M121.864 139.377C110.276 139.232 100.214 130.359 98.9981 119.211C97.6705 107.053 104.941 96.306 116.484 93.4682C117.696 93.1704 119.453 92.2396 120.012 94.1797C120.611 96.2687 118.589 96.1281 117.365 96.4383C107.563 98.9451 101.095 107.901 101.951 117.833C102.799 127.629 110.81 135.538 120.611 136.262C130.529 136.994 139.474 130.367 141.795 120.563C144.251 110.189 137.853 99.4498 127.514 96.6203C126.852 96.4383 126.05 96.4921 125.533 96.1239C124.921 95.6855 124.549 94.9078 124.069 94.279C124.764 93.9026 125.475 93.1952 126.153 93.22C127.361 93.2697 128.577 93.6833 129.743 94.0846C140.376 97.7372 147.055 108.861 145.136 119.678C143.072 131.347 133.42 139.517 121.864 139.377Z" fill="white"/>
<path d="M128.87 114.495C129.759 114.495 130.723 114.28 131.513 114.557C132.262 114.822 132.824 115.603 133.465 116.158C132.841 116.658 132.278 117.291 131.571 117.61C131.054 117.841 130.347 117.709 129.735 117.651C128.089 117.49 126.914 117.804 125.81 119.376C124.015 121.924 119.904 121.767 118.175 119.136C117.278 117.767 116.302 117.577 114.949 117.647C114.056 117.692 113.093 117.845 112.29 117.572C111.653 117.361 110.934 116.642 110.785 116.021C110.698 115.653 111.579 114.937 112.154 114.573C112.505 114.35 113.093 114.486 113.572 114.482C115.512 114.466 117.356 114.813 118.676 112.509C119.681 110.751 122.377 110.495 124.284 111.583C125.4 112.22 126.124 111.992 127.063 111.425C129.474 109.969 131.931 108.588 134.363 107.16C135.351 106.581 136.447 105.932 137.224 107.252C138.064 108.675 136.902 109.32 135.839 109.924C133.469 111.276 131.116 112.658 128.755 114.027C128.792 114.189 128.833 114.342 128.87 114.495ZM122.563 113.862C122.274 113.858 121.984 113.858 121.691 113.854C121.178 114.606 120.185 115.43 120.28 116.096C120.38 116.815 121.434 117.763 122.199 117.899C122.687 117.986 123.862 116.811 123.899 116.149C123.945 115.417 123.051 114.627 122.563 113.862Z" fill="white"/>
<path d="M121.972 126.483C120.942 126.483 119.875 126.648 118.899 126.421C118.324 126.288 117.427 125.424 117.505 125.08C117.65 124.468 118.386 123.587 118.932 123.542C121.046 123.364 123.188 123.38 125.301 123.542C125.822 123.579 126.74 124.526 126.666 124.878C126.534 125.486 125.843 126.272 125.247 126.412C124.209 126.661 123.068 126.483 121.972 126.483Z" fill="white"/>
<path d="M127.353 103.16C128.531 102.101 129.205 101.315 130.061 100.865C130.26 100.761 131.6 102.027 131.497 102.283C131.149 103.123 130.487 103.963 129.718 104.43C129.416 104.612 128.519 103.814 127.353 103.16Z" fill="white"/>
<path d="M132.332 129.879C131.207 130.59 130.26 131.434 130.041 131.277C129.259 130.706 128.63 129.85 128.18 128.977C128.093 128.812 129.334 127.6 129.553 127.707C130.421 128.125 131.124 128.882 132.332 129.879Z" fill="white"/>
<path d="M119.751 100.571C120.876 99.6855 121.521 99.1767 122.166 98.6679C122.671 99.3463 123.519 100.004 123.564 100.711C123.597 101.274 122.629 102.395 122.137 102.374C121.48 102.35 120.855 101.464 119.751 100.571Z" fill="white"/>
<path d="M110.785 109.018C110.156 109.365 109.358 110.135 108.94 109.965C108.126 109.634 107.522 108.778 106.831 108.137C107.348 107.62 108.006 106.594 108.361 106.689C109.267 106.933 110.036 107.678 110.859 108.219C110.834 108.484 110.81 108.749 110.785 109.018Z" fill="white"/>
<path d="M106.636 118.441C105.743 117.32 104.862 116.691 104.841 116.034C104.825 115.541 105.946 114.577 106.508 114.611C107.211 114.656 107.861 115.512 108.535 116.017C108.026 116.671 107.517 117.316 106.636 118.441Z" fill="white"/>
<path d="M137.679 113.729C138.531 114.871 139.023 115.533 139.519 116.195C138.82 116.683 138.142 117.514 137.423 117.548C136.864 117.572 135.752 116.555 135.797 116.087C135.863 115.409 136.753 114.813 137.679 113.729Z" fill="white"/>
<path d="M114.044 104.765C113.577 103.905 112.907 103.082 112.745 102.168C112.683 101.812 113.767 101.249 114.325 100.786C114.9 101.539 115.69 102.221 115.963 103.073C116.095 103.479 115.256 104.199 114.854 104.778C114.586 104.769 114.313 104.765 114.044 104.765Z" fill="white"/>
<path d="M135.707 126.297C134.805 125.039 134.123 124.299 133.755 123.426C133.672 123.227 134.929 122.102 135.128 122.21C135.98 122.673 136.77 123.368 137.332 124.154C137.452 124.323 136.53 125.238 135.707 126.297Z" fill="white"/>
<path d="M108.419 126.313C107.646 125.217 106.765 124.373 106.914 124.1C107.344 123.322 108.113 122.594 108.919 122.239C109.221 122.106 110.545 123.306 110.474 123.463C110.069 124.328 109.378 125.06 108.419 126.313Z" fill="white"/>
<path d="M114.941 127.376C115.309 127.976 116.103 128.729 115.954 129.151C115.661 129.982 114.85 130.632 114.25 131.356C113.709 130.872 112.654 130.272 112.728 129.92C112.927 129.006 113.626 128.204 114.122 127.356C114.399 127.364 114.672 127.368 114.941 127.376Z" fill="white"/>
<path d="M124.47 131.525C123.349 132.435 122.712 132.957 122.075 133.474C121.563 132.812 120.694 132.175 120.644 131.48C120.603 130.909 121.534 129.771 122.026 129.776C122.679 129.78 123.324 130.648 124.47 131.525Z" fill="white"/>
<defs>
<filter id="filter0_d_750_767" x="0" y="0" width="186" height="202" filterUnits="userSpaceOnUse" color-interpolation-filters="sRGB">
<feFlood flood-opacity="0" result="BackgroundImageFix"/>
<feColorMatrix in="SourceAlpha" type="matrix" values="0 0 0 0 0 0 0 0 0 0 0 0 0 0 0 0 0 0 127 0" result="hardAlpha"/>
<feOffset dy="4"/>
<feGaussianBlur stdDeviation="2"/>
<feComposite in2="hardAlpha" operator="out"/>
<feColorMatrix type="matrix" values="0 0 0 0 0 0 0 0 0 0 0 0 0 0 0 0 0 0 0.25 0"/>
<feBlend mode="normal" in2="BackgroundImageFix" result="effect1_dropShadow_750_767"/>
<feBlend mode="normal" in="SourceGraphic" in2="effect1_dropShadow_750_767" result="shape"/>
</filter>
<filter id="filter1_d_750_767" x="0" y="170" width="186" height="99" filterUnits="userSpaceOnUse" color-interpolation-filters="sRGB">
<feFlood flood-opacity="0" result="BackgroundImageFix"/>
<feColorMatrix in="SourceAlpha" type="matrix" values="0 0 0 0 0 0 0 0 0 0 0 0 0 0 0 0 0 0 127 0" result="hardAlpha"/>
<feOffset dy="4"/>
<feGaussianBlur stdDeviation="2"/>
<feComposite in2="hardAlpha" operator="out"/>
<feColorMatrix type="matrix" values="0 0 0 0 0 0 0 0 0 0 0 0 0 0 0 0 0 0 0.25 0"/>
<feBlend mode="normal" in2="BackgroundImageFix" result="effect1_dropShadow_750_767"/>
<feBlend mode="normal" in="SourceGraphic" in2="effect1_dropShadow_750_767" result="shape"/>
</filter>
</defs>
</svg>
